<svg id="Capa_1" enable-background="new 0 0 511.998 511.998" height="512" viewBox="0 0 511.998 511.998" width="512" xmlns="http://www.w3.org/2000/svg"><path d="m259.988 90.022c-5.51 0-10 4.493-10 10.016 0 5.514 4.49 9.997 10 9.997s10-4.482 10-9.997c0-5.523-4.49-10.016-10-10.016z"/><path d="m461.895 195.733c-1.1-.401-2.25-.611-3.42-.611-4.19 0-7.96 2.651-9.4 6.594-1.88 5.183.8 10.937 5.98 12.818 1.1.41 2.26.611 3.42.611 4.19 0 7.96-2.651 9.4-6.584.91-2.511.79-5.233-.34-7.654-1.12-2.422-3.13-4.264-5.64-5.174z"/><path d="m446.506 238.05c-1.1-.409-2.25-.61-3.42-.61-4.19 0-7.96 2.651-9.4 6.584l-59.169 162.677c-1.88 5.184.8 10.938 5.98 12.829 1.1.401 2.26.601 3.42.601 4.19 0 7.96-2.642 9.4-6.584l59.169-162.678c1.879-5.183-.801-10.937-5.98-12.819z"/><path d="m335.447 251.129c.58.11 1.17.16 1.75.16 4.85 0 8.99-3.483 9.83-8.275l13.03-73.909c.46-2.632-.13-5.284-1.66-7.475-1.53-2.192-3.82-3.653-6.45-4.113-.58-.11-1.17-.16-1.75-.16-4.86 0-8.99 3.483-9.84 8.276l-13.02 73.908c-.96 5.434 2.68 10.637 8.11 11.588z"/><path d="m356.287 132.881c.58.1 1.16.15 1.74.15 4.86 0 9-3.483 9.84-8.266.96-5.433-2.68-10.637-8.11-11.598-.58-.1-1.17-.15-1.75-.15-4.85 0-8.99 3.472-9.83 8.265-.47 2.632.12 5.294 1.65 7.475 1.53 2.193 3.83 3.654 6.46 4.124z"/><path d="m508.229 180.359c-4.515-9.689-12.531-17.04-22.571-20.696l-78.298-28.518 1.793-10.174c1.855-10.529-.498-21.151-6.626-29.908-6.128-8.759-15.298-14.604-25.82-16.46l-78.419-13.837c-7.245-7.265-17.257-11.767-28.299-11.767h-139.999c-22.056 0-39.992 17.956-39.992 40.026v27.434l-63.676 23.19c-20.726 7.549-31.452 30.562-23.908 51.302l9.778 27.736c1.43 3.943 5.209 6.594 9.399 6.594 1.16 0 2.31-.21 3.42-.61 5.18-1.892 7.86-7.646 5.969-12.829l-9.775-27.736c-1.827-5.024-1.59-10.458.667-15.303 2.258-4.845 6.266-8.519 11.286-10.349l131.555-47.914c2.25-.82 4.553-1.209 6.82-1.209 8.172 0 15.861 5.052 18.814 13.17l82.084 225.676c3.771 10.37-1.591 21.877-11.953 25.652l-131.555 47.915c-5.019 1.828-10.45 1.592-15.292-.668-4.842-2.259-8.514-6.271-10.341-11.293l-41.039-112.83c-.094.023-.48-.474-.48-.474-1.44-3.943-5.22-6.594-9.4-6.594-1.17 0-2.32.21-3.42.61-2.51.911-4.52 2.752-5.65 5.173-1.12 2.421-1.24 5.144-.33 7.655l41.525 113.304c3.654 10.047 10.999 18.069 20.682 22.587 5.378 2.51 11.119 3.771 16.881 3.771 4.613 0 9.24-.809 13.704-2.435l96.522-35.155c3.555 3.066 7.706 5.555 12.371 7.254l131.555 47.915c4.465 1.627 9.091 2.435 13.704 2.435 5.762 0 11.504-1.263 16.881-3.771 9.683-4.519 17.028-12.541 20.682-22.587l82.084-225.675c3.657-10.047 3.182-20.917-1.333-30.607zm-215.195 181.512c10.25-7.253 16.965-19.197 16.965-32.687v-205.394s8.222 1.406 8.802 1.406c4.85 0 8.988-3.483 9.838-8.276.46-2.632-.131-5.449-1.661-7.641-1.53-2.181-3.821-3.28-6.441-4.28-.01 0-.01 0-.02 0l-10.519-1.524v-14.45c0-2.022-.159-4.009-.45-5.952l63.688 11.238c5.261.928 9.844 3.851 12.908 8.23s4.24 9.69 3.312 14.955l-41.675 236.51c-1.915 10.869-12.308 18.148-23.169 16.234l-32.142-5.672c.221-.89.405-1.79.564-2.697zm-23.035-78.926v-137.886c0-5.513-4.49-10.007-10-10.007s-10 4.493-10 10.007v82.901l-40.852-112.32c-.852-2.342-1.915-4.641-3.135-6.641h13.977c5.51 0 10-4.476 10-10 0-5.513-4.49-10-10-10h-49.999c-1.207 0-9.245 1.681-12.112 2.725l-47.879 17.451v-20.15c0-11.035 8.964-20.026 19.992-20.026h139.998c11.028 0 20.011 8.991 20.011 20.026v240.159c0 2.131-.338 4.183-.959 6.11zm220.772-78.824-82.084 225.675c-1.827 5.023-5.499 9.034-10.341 11.293-4.842 2.26-10.272 2.495-15.292.668l-125.303-45.637 9.569-3.485c5.79-2.109 10.798-5.427 14.847-9.563 0 0 43.641 7.49 45.939 7.49 19.035-.001 35.955-13.687 39.372-33.08l29.302-166.296 21.376 7.788c1.1.401 2.25.601 3.41.601 4.19 0 7.97-2.724 9.4-6.666 1.89-5.184-.79-10.91-5.97-12.91h-.01l-24.679-8.907 3.527-19.974 74.984 27.331c10.362 3.774 15.725 15.302 11.953 25.672z"/><path d="m174.979 138.745c-1.44-3.933-5.21-6.584-9.4-6.584-1.17 0-2.32.21-3.42.61l-75.179 27.379c-5.18 1.891-7.86 7.645-5.97 12.829 1.43 3.942 5.21 6.584 9.4 6.584 1.16 0 2.31-.2 3.41-.601.01 0 .01-.01.01-.01l65.769-23.956 56.089 154.213c1.44 3.943 5.21 6.584 9.4 6.584 1.16 0 2.31-.2 3.42-.6 5.18-1.892 7.86-7.646 5.98-12.829z"/><path d="m231.079 351.526c1.44 3.932 5.21 6.584 9.4 6.584 1.17 0 2.32-.2 3.42-.611 5.18-1.881 7.86-7.635 5.98-12.818-1.44-3.943-5.21-6.594-9.4-6.594-1.16 0-2.31.21-3.42.61-2.51.911-4.51 2.752-5.64 5.173-1.13 2.423-1.25 5.144-.34 7.656z"/><path d="m53.161 174.179c-1.17 0-2.32.199-3.42.6-5.19 1.891-7.87 7.645-5.98 12.829 1.43 3.942 5.21 6.584 9.4 6.584 1.16 0 2.31-.2 3.42-.611 5.18-1.881 7.86-7.635 5.97-12.819-1.43-3.942-5.21-6.583-9.39-6.583z"/><path d="m68.551 216.486c-1.17 0-2.32.21-3.42.611-2.51.911-4.52 2.752-5.64 5.173-1.13 2.422-1.25 5.133-.34 7.645l59.509 163.619c.9 2.481 2.79 4.532 5.17 5.643 1.31.611 2.77.93 4.23.93 1.18 0 2.33-.2 3.42-.59l75.179-27.379c5.18-1.891 7.86-7.645 5.97-12.828-1.43-3.943-5.21-6.584-9.39-6.584-1.16 0-2.31.2-3.41.6-.01 0-.01 0-.02 0l-65.769 23.956-56.089-154.212c-1.44-3.932-5.21-6.584-9.4-6.584z"/><path d="m46.041 261.816c1.13-2.422 1.25-5.143.33-7.654-1.43-3.943-5.21-6.584-9.4-6.584-1.16 0-2.31.2-3.41.6-5.19 1.892-7.87 7.646-5.98 12.829 1.43 3.943 5.21 6.584 9.4 6.584 1.16 0 2.31-.2 3.42-.6 2.511-.922 4.51-2.753 5.64-5.175z"/></svg>