<svg id="Capa_1" enable-background="new 0 0 511.997 511.997" height="512" viewBox="0 0 511.997 511.997" width="512" xmlns="http://www.w3.org/2000/svg"><g><g><path d="m338.848 90.35c0-45.757-37.093-82.85-82.85-82.85s-82.85 37.093-82.85 82.85c0 33.191 19.526 61.809 47.71 75.032v90.618h70.278v-90.618c28.186-13.222 47.712-41.84 47.712-75.032z" fill="#d8aa8b"/><path d="m219.138 90.35c0 33.189 8.69 61.809 21.23 75.029v90.619h-19.51v-90.619c-28.18-13.22-47.709-41.839-47.709-75.029 0-45.759 37.089-82.849 82.849-82.849-20.35.001-36.86 37.09-36.86 82.849z" fill="#ce9875"/><path d="m345.495 238.622h-178.993c-10.21 0-18.486 8.277-18.486 18.486 0 10.21 8.277 18.486 18.486 18.486l85.424 31.312 93.568-31.312c10.21 0 18.486-8.277 18.486-18.486.001-10.209-8.275-18.486-18.485-18.486z" fill="#407093"/><path d="m445.584 455.408-189.585 24.544-189.586-24.544c-20.85 0-36.107-19.656-30.936-39.854l27.989-109.327c4.615-18.025 20.856-30.632 39.463-30.632h306.138c18.606 0 34.848 12.607 39.463 30.632l27.989 109.327c5.172 20.199-10.086 39.854-30.935 39.854z" fill="#e27f83"/><path d="m288.983 475.685-32.979 4.27-189.587-24.55c-20.85 0-36.11-19.66-30.939-39.849l27.989-109.328c4.62-18.03 20.86-30.64 39.46-30.64h65.979c-18.61 0-34.85 12.61-39.46 30.64l-27.989 109.328c-5.18 20.19 10.08 39.849 30.929 39.849z" fill="#c8646d"/><path d="m200.055 270.178c3.34 3.35 7.96 5.42 13.07 5.42h-46.629c-5.1 0-9.72-2.07-13.07-5.42-3.34-3.34-5.41-7.96-5.41-13.07 0-10.21 8.27-18.48 18.48-18.48h46.629c-10.21 0-18.49 8.27-18.49 18.48 0 5.11 2.07 9.73 5.42 13.07z" fill="#365e7d"/><path d="m470.262 455.408h-428.527c-13.088 0-23.698 10.61-23.698 23.698v1.693c0 13.088 10.61 23.698 23.698 23.698h428.528c13.088 0 23.698-10.61 23.698-23.698v-1.693c-.001-13.088-10.611-23.698-23.699-23.698z" fill="#407093"/><path d="m122.105 504.499h-80.368c-13.09 0-23.7-10.61-23.7-23.7v-1.69c0-13.09 10.61-23.7 23.7-23.7h80.369c-13.09 0-23.7 10.61-23.7 23.7v1.69c0 13.09 10.61 23.7 23.699 23.7z" fill="#365e7d"/></g><g><path d="m179.576 408.15c2.659 0 5.425-.63 8.152-2.144 5.726-3.178 9.282-9.279 9.282-15.923v-42.126c0-4.142-3.357-7.5-7.5-7.5s-7.5 3.358-7.5 7.5v42.126c0 1.197-.599 2.273-1.562 2.808-1.457.806-3.353-.565-4.102-1.193-3.171-2.662-7.903-2.25-10.566.923-2.662 3.173-2.249 7.904.924 10.566 3.275 2.75 7.885 4.963 12.872 4.963z"/><path d="m385.059 355.698c4.143 0 7.5-3.358 7.5-7.5s-3.357-7.5-7.5-7.5h-22.006c-4.143 0-7.5 3.358-7.5 7.5v52.227c0 4.142 3.357 7.5 7.5 7.5h22.006c4.143 0 7.5-3.358 7.5-7.5s-3.357-7.5-7.5-7.5h-14.506v-11.113h12.883c4.143 0 7.5-3.358 7.5-7.5s-3.357-7.5-7.5-7.5h-12.883v-11.113h14.506z"/><path d="m149.886 355.698c4.143 0 7.5-3.358 7.5-7.5s-3.357-7.5-7.5-7.5h-22.007c-4.143 0-7.5 3.358-7.5 7.5v52.227c0 4.142 3.357 7.5 7.5 7.5h22.007c4.143 0 7.5-3.358 7.5-7.5s-3.357-7.5-7.5-7.5h-14.507v-11.113h12.884c4.143 0 7.5-3.358 7.5-7.5s-3.357-7.5-7.5-7.5h-12.884v-11.113h14.507z"/><path d="m237.316 355.698c4.143 0 7.5-3.358 7.5-7.5s-3.357-7.5-7.5-7.5h-22.006c-4.143 0-7.5 3.358-7.5 7.5v52.227c0 4.142 3.357 7.5 7.5 7.5h22.006c4.143 0 7.5-3.358 7.5-7.5s-3.357-7.5-7.5-7.5h-14.506v-11.113h12.884c4.143 0 7.5-3.358 7.5-7.5s-3.357-7.5-7.5-7.5h-12.884v-11.113h14.506z"/><path d="m402.132 405.209c1.405 1.395 3.305 2.177 5.284 2.177h.028c.438-.002 10.774-.041 14.909-.114 15.993-.279 27.601-14.141 27.601-32.96 0-19.783-11.314-33.074-28.155-33.074h-14.486c-1.991 0-3.901.792-5.309 2.202-1.406 1.41-2.195 3.321-2.191 5.312 0 .001.104 51.161.104 51.161.006 1.989.804 3.894 2.215 5.296zm19.667-48.972c12.207 0 13.155 13.834 13.155 18.074 0 8.829-3.978 17.808-12.862 17.963-1.678.029-4.485.053-7.201.072-.019-5.963-.054-29.897-.064-36.109z"/><path d="m282.017 355.458c3.778 0 7.422 1.112 10.536 3.216 3.433 2.319 8.095 1.417 10.413-2.016 2.318-3.432 1.416-8.094-2.017-10.413-5.603-3.785-12.149-5.786-18.933-5.786-18.667 0-33.854 15.187-33.854 33.854s15.187 33.854 33.854 33.854c7.486 0 14.213-2.466 19.452-7.132 1.025-.913 2-1.918 2.897-2.989 2.661-3.174 2.246-7.904-.928-10.566-3.175-2.662-7.905-2.246-10.566.928-.432.515-.896.994-1.38 1.425-2.483 2.212-5.672 3.333-9.476 3.333-10.396 0-18.854-8.458-18.854-18.854.003-10.396 8.461-18.854 18.856-18.854z"/><path d="m327.911 408.166c4.143 0 7.5-3.358 7.5-7.5v-45.208h7.113c4.143 0 7.5-3.358 7.5-7.5s-3.357-7.5-7.5-7.5h-29.108c-4.143 0-7.5 3.358-7.5 7.5s3.357 7.5 7.5 7.5h6.995v45.208c0 4.142 3.357 7.5 7.5 7.5z"/><path d="m68.677 400.666c0 4.142 3.357 7.5 7.5 7.5s7.5-3.358 7.5-7.5v-12.506l15.367 17.46c1.482 1.685 3.553 2.545 5.633 2.545 1.76 0 3.527-.616 4.952-1.87 3.109-2.737 3.411-7.476.675-10.585l-12.476-14.175c8.367-2.998 14.346-10.777 14.346-19.879 0-11.689-9.857-21.198-21.974-21.198h-14.005c-1.993 0-3.904.793-5.312 2.205-1.407 1.412-2.195 3.326-2.188 5.319 0 .001-.018 52.684-.018 52.684zm21.524-45.208c3.78 0 6.974 2.838 6.974 6.198s-3.193 6.198-6.974 6.198c-1.529 0-4.006.009-6.45.021-.012-2.369-.027-9.928-.033-12.417z"/><path d="m476.07 448.459c.219-.268.446-.527.659-.802 7.527-9.697 10.099-22.077 7.055-33.967l-27.988-109.318c-5.463-21.362-24.678-36.282-46.727-36.282h-40.03c1.563-3.338 2.442-7.058 2.442-10.982 0-14.329-11.657-25.986-25.986-25.986h-46.856v-61.12c29.136-15.636 47.71-46.388 47.71-79.652 0-13.063-2.73-25.668-8.117-37.465-1.72-3.767-6.168-5.43-9.938-3.708-3.768 1.72-5.428 6.169-3.707 9.938 4.486 9.827 6.762 20.336 6.762 31.235 0 29.087-17.033 55.873-43.396 68.24-2.633 1.235-4.314 3.882-4.314 6.79v65.742h-55.279v-65.742c0-2.908-1.682-5.555-4.314-6.79-26.362-12.367-43.396-39.152-43.396-68.24 0-41.548 33.802-75.35 75.35-75.35 19.986 0 38.806 7.735 52.993 21.78 2.942 2.913 7.691 2.891 10.606-.053 2.914-2.944 2.89-7.692-.054-10.606-17.014-16.845-39.583-26.121-63.546-26.121-49.819 0-90.35 40.531-90.35 90.35 0 33.264 18.574 64.016 47.71 79.652v61.12h-46.856c-14.329 0-25.986 11.657-25.986 25.986 0 3.923.879 7.643 2.442 10.982h-40.03c-15.552 0-30.217 7.551-39.229 20.198-2.403 3.373-1.617 8.057 1.756 10.46 3.377 2.405 8.058 1.616 10.461-1.756 6.202-8.705 16.3-13.902 27.012-13.902h306.141c15.191 0 28.431 10.28 32.194 25l27.989 109.32c1.886 7.368.292 15.04-4.372 21.049-4.651 5.992-11.663 9.434-19.24 9.449h-379.284c-7.578-.016-14.589-3.457-19.24-9.449-4.664-6.009-6.258-13.681-4.372-21.049l24.27-94.78c1.027-4.013-1.393-8.098-5.405-9.126-4.009-1.028-8.098 1.392-9.126 5.405l-24.27 94.781c-3.044 11.89-.473 24.271 7.055 33.967.213.275.44.534.659.802-14.436 2.73-25.391 15.43-25.391 30.647v1.693c0 17.202 13.995 31.198 31.198 31.198h428.527c17.203 0 31.198-13.995 31.198-31.198v-1.693c0-15.217-10.954-27.917-25.39-30.647zm-320.554-191.351c0-6.058 4.929-10.986 10.986-10.986h178.992c6.058 0 10.986 4.928 10.986 10.986 0 6.027-4.88 10.932-10.895 10.982h-179.174c-6.015-.05-10.895-4.955-10.895-10.982zm330.944 223.692c0 8.931-7.267 16.198-16.198 16.198h-428.527c-8.932 0-16.198-7.266-16.198-16.198v-1.693c0-8.931 7.267-16.198 16.198-16.198h428.527c8.932 0 16.198 7.266 16.198 16.198z"/></g></g></svg>