<?xml version="1.0" encoding="iso-8859-1"?>
<!-- Generator: Adobe Illustrator 19.0.0, SVG Export Plug-In . SVG Version: 6.00 Build 0)  -->
<svg version="1.1" id="Capa_1" xmlns="http://www.w3.org/2000/svg" xmlns:xlink="http://www.w3.org/1999/xlink" x="0px" y="0px"
	 viewBox="0 0 512 512" style="enable-background:new 0 0 512 512;" xml:space="preserve">
<path style="fill:#CFD8DC;" d="M128,0h256c29.455,0,53.333,23.878,53.333,53.333v405.333C437.333,488.122,413.455,512,384,512H128
	c-29.455,0-53.333-23.878-53.333-53.333V53.333C74.667,23.878,98.545,0,128,0z"/>
<g>
	<path style="fill:#455A64;" d="M192,149.333c-4.443,0-8.42-2.754-9.984-6.912L160,83.712l-22.016,58.709
		c-2.074,5.52-8.229,8.314-13.749,6.24c-5.52-2.074-8.314-8.229-6.24-13.749l32-85.333c2.685-5.52,9.337-7.818,14.857-5.132
		c2.237,1.088,4.044,2.895,5.132,5.132l32,85.333c2.074,5.514-0.715,11.665-6.229,13.739
		C194.554,149.102,193.282,149.333,192,149.333z"/>
	<path style="fill:#455A64;" d="M181.333,128h-42.667c-5.891,0-10.667-4.776-10.667-10.667s4.776-10.667,10.667-10.667h42.667
		c5.891,0,10.667,4.776,10.667,10.667S187.224,128,181.333,128z"/>
	<path style="fill:#455A64;" d="M352,469.333c-4.443,0-8.42-2.754-9.984-6.912l-32-85.333c-2.074-5.52,0.72-11.676,6.24-13.749
		c5.52-2.074,11.676,0.72,13.749,6.24L352,428.288l22.016-58.709c2.074-5.52,8.229-8.314,13.749-6.24
		c5.52,2.074,8.314,8.229,6.24,13.749l-32,85.333C360.439,466.587,356.451,469.342,352,469.333z"/>
	<path style="fill:#455A64;" d="M373.333,405.333h-42.667c-5.891,0-10.667-4.776-10.667-10.667c0-5.891,4.776-10.667,10.667-10.667
		h42.667c5.891,0,10.667,4.776,10.667,10.667C384,400.558,379.224,405.333,373.333,405.333z"/>
</g>
<path style="fill:#F44336;" d="M324.779,246.464c-16.853-8.533-58.112-53.909-58.112-86.464c0-5.891-4.776-10.667-10.667-10.667
	c-5.891,0-10.667,4.776-10.667,10.667c0,32.555-41.259,78.037-58.112,86.464c-5.272,2.628-7.416,9.032-4.789,14.305
	c1.034,2.074,2.715,3.755,4.789,4.789c16.853,8.533,58.112,53.888,58.112,86.464c0,5.891,4.776,10.667,10.667,10.667
	c5.891,0,10.667-4.776,10.667-10.667c0-32.555,41.259-78.037,58.112-86.464c5.272-2.628,7.416-9.032,4.789-14.305
	C328.534,249.179,326.853,247.498,324.779,246.464L324.779,246.464z"/>
<path d="M384,512H128c-29.455,0-53.333-23.878-53.333-53.333V53.333C74.667,23.878,98.545,0,128,0h256
	c29.455,0,53.333,23.878,53.333,53.333v405.333C437.333,488.122,413.455,512,384,512z M128,21.333c-17.673,0-32,14.327-32,32
	v405.333c0,17.673,14.327,32,32,32h256c17.673,0,32-14.327,32-32V53.333c0-17.673-14.327-32-32-32H128z"/>
<path d="M192,149.333c-4.443,0-8.42-2.754-9.984-6.912L160,83.712l-22.016,58.709c-2.07,5.515-8.219,8.308-13.735,6.238
	c-5.515-2.07-8.308-8.219-6.238-13.735c0.002-0.004,0.003-0.009,0.005-0.013l32-85.333c2.671-5.514,9.305-7.819,14.819-5.149
	c2.247,1.088,4.06,2.902,5.149,5.149l32,85.333c2.074,5.514-0.715,11.665-6.229,13.739C194.554,149.102,193.282,149.333,192,149.333
	z"/>
<path d="M181.333,128h-42.667c-5.891,0-10.667-4.776-10.667-10.667s4.776-10.667,10.667-10.667h42.667
	c5.891,0,10.667,4.776,10.667,10.667S187.224,128,181.333,128z"/>
<path d="M352,469.333c-4.443,0-8.42-2.754-9.984-6.912l-32-85.333c-2.078-5.512,0.705-11.666,6.217-13.744
	s11.666,0.705,13.744,6.217c0.002,0.006,0.004,0.012,0.007,0.017L352,428.288l22.016-58.709c2.074-5.514,8.225-8.303,13.739-6.229
	c5.514,2.074,8.303,8.225,6.229,13.739l-32,85.333C360.42,466.58,356.443,469.333,352,469.333z"/>
<path d="M373.333,405.333h-42.667c-5.891,0-10.667-4.776-10.667-10.667c0-5.891,4.776-10.667,10.667-10.667h42.667
	c5.891,0,10.667,4.776,10.667,10.667C384,400.558,379.224,405.333,373.333,405.333z"/>
<path d="M256,362.667c-5.891,0-10.667-4.776-10.667-10.667c0-32.555-41.259-78.037-58.112-86.464
	c-5.272-2.628-7.416-9.032-4.789-14.305c1.034-2.074,2.715-3.755,4.789-4.789c16.853-8.533,58.112-53.888,58.112-86.464
	c0-5.891,4.776-10.667,10.667-10.667c5.891,0,10.667,4.776,10.667,10.667c0,32.555,41.259,78.037,58.112,86.464
	c5.272,2.628,7.416,9.032,4.789,14.305c-1.034,2.074-2.715,3.755-4.789,4.789c-16.853,8.533-58.112,53.888-58.112,86.464
	C266.667,357.891,261.891,362.667,256,362.667z M210.496,256c18.651,15.98,34.093,35.361,45.504,57.109
	c11.411-21.749,26.853-41.129,45.504-57.109c-18.651-15.98-34.093-35.361-45.504-57.109C244.589,220.639,229.147,240.02,210.496,256
	z"/>
<g>
</g>
<g>
</g>
<g>
</g>
<g>
</g>
<g>
</g>
<g>
</g>
<g>
</g>
<g>
</g>
<g>
</g>
<g>
</g>
<g>
</g>
<g>
</g>
<g>
</g>
<g>
</g>
<g>
</g>
</svg>
